<svg xmlns="http://www.w3.org/2000/svg" viewBox="0 0 500 500" xmlns:v="https://vecta.io/nano"><style><![CDATA[.B{fill:#c93d17}.C{stroke-width:.863}.D{stroke-linejoin:round}.E{stroke-miterlimit:10}]]></style><path d="M0 0h500v500H0z" fill="#151515"/><linearGradient id="A" gradientUnits="userSpaceOnUse" x1="117.355" y1="233.11" x2="158.696" y2="250.973"><stop offset="0" stop-color="#eeeefa"/><stop offset=".096" stop-color="#c3c3ce"/><stop offset=".184" stop-color="#a3a3ae"/><stop offset=".257" stop-color="#90909a"/><stop offset=".307" stop-color="#898993"/><stop offset=".317" stop-color="#9a9aa4"/><stop offset=".336" stop-color="#b4b4bf"/><stop offset=".359" stop-color="#c9c9d5"/><stop offset=".385" stop-color="#dadae6"/><stop offset=".417" stop-color="#e6e6f1"/><stop offset=".463" stop-color="#ececf8"/><stop offset=".589" stop-color="#eeeefa"/><stop offset=".6" stop-color="#ebebf6"/><stop offset=".7" stop-color="#d0d0da"/><stop offset=".801" stop-color="#bdbdc6"/><stop offset=".901" stop-color="#b2b2ba"/><stop offset="1" stop-color="#aeaeb6"/></linearGradient><linearGradient id="B" gradientUnits="userSpaceOnUse" x1="121.848" y1="246.175" x2="132.128" y2="228.37"><stop offset="0" stop-color="#eeeefa"/><stop offset=".096" stop-color="#c3c3ce"/><stop offset=".184" stop-color="#a3a3ae"/><stop offset=".257" stop-color="#90909a"/><stop offset=".307" stop-color="#898993"/><stop offset=".317" stop-color="#9a9aa4"/><stop offset=".336" stop-color="#b4b4bf"/><stop offset=".359" stop-color="#c9c9d5"/><stop offset=".385" stop-color="#dadae6"/><stop offset=".417" stop-color="#e6e6f1"/><stop offset=".463" stop-color="#ececf8"/><stop offset=".589" stop-color="#eeeefa"/><stop offset=".6" stop-color="#ebebf6"/><stop offset=".7" stop-color="#d0d0da"/><stop offset=".801" stop-color="#bdbdc6"/><stop offset=".901" stop-color="#b2b2ba"/><stop offset="1" stop-color="#aeaeb6"/></linearGradient><path d="      M114.546,241.461c0,0,4.91-7.11,24.884-8.377c0,0-3.942,4.083-6.335,5.702c-2.393,1.619-5.42,0.774-10.277,1.267      C117.96,240.545,114.546,241.461,114.546,241.461z" fill="url(#A)" stroke="url(#B)" class="C D E"/><linearGradient id="C" gradientUnits="userSpaceOnUse" x1="174.839" y1="199.091" x2="254.503" y2="248.418"><stop offset=".002" stop-color="#e5591f"/><stop offset=".058" stop-color="#e2581f"/><stop offset=".096" stop-color="#d9541e"/><stop offset=".129" stop-color="#ca4d1d"/><stop offset=".159" stop-color="#b4441b"/><stop offset=".185" stop-color="#9a3919"/><stop offset=".407" stop-color="#f59921"/><stop offset=".552" stop-color="#ea821e"/><stop offset="1" stop-color="#c93d17"/></linearGradient><path d="M126.336 232.819c7.431-3.854 26.343-11.677 57.385-11.677 4.306 0 8.756.151 13.227.449 12.219.815 24.327 1.229 35.986 1.229 41.335 0 66.723-5.192 72.633-6.545-3.986 2.855-20.068 12.145-60.485 12.145-6.903 0-14.279-.272-21.922-.809-21.298-1.495-36.847-2.19-48.935-2.19-23.047 0-35.385 2.587-47.889 7.398z" fill="url(#C)"/><path d="M304.089 216.909c-5.57 3.487-22.079 11.211-59.007 11.211-6.896 0-14.265-.272-21.902-.808-21.304-1.495-36.86-2.191-48.955-2.191-19.322 0-31.136 1.816-41.822 5.236 9.626-3.955 26.623-8.914 51.318-8.914 4.299 0 8.742.151 13.207.449 12.226.816 24.34 1.229 36.006 1.229 38.436-.001 63.104-4.49 71.155-6.212m2.732-1.242s-26.094 6.853-73.888 6.853c-10.88 0-22.89-.355-35.966-1.228-4.641-.309-9.054-.45-13.246-.45-41.566 0-61.185 13.825-61.185 13.825 14.425-6.007 26.688-8.948 51.689-8.948 12.5 0 28.185.735 48.913 2.19 8.011.562 15.304.809 21.943.809 48.245.001 61.74-13.051 61.74-13.051h0z" class="B"/><linearGradient id="D" gradientUnits="userSpaceOnUse" x1="242.075" y1="180.095" x2="328.319" y2="233.496"><stop offset=".002" stop-color="#e5591f"/><stop offset=".058" stop-color="#e2581f"/><stop offset=".096" stop-color="#d9541e"/><stop offset=".129" stop-color="#ca4d1d"/><stop offset=".159" stop-color="#b4441b"/><stop offset=".185" stop-color="#9a3919"/><stop offset=".407" stop-color="#f59921"/><stop offset=".552" stop-color="#ea821e"/><stop offset="1" stop-color="#c93d17"/></linearGradient><path d="M336.748 217.648c-12.119 0-22.186-2.165-36.121-5.161l-23.346-4.717-6.358-1.221c-7.786-1.539-15.141-2.992-24.355-2.992-15.129 0-32.911 4.039-56.976 13.008 10.769-4.952 31.78-13.975 47.029-16.516 4.08-.681 8.483-1.011 13.461-1.011 15.504 0 34.254 3.301 55.964 7.122l18.326 3.174c4.841.811 9.774 1.224 14.662 1.224 22.261 0 38.927-8.521 44.538-11.815-4.74 4.663-19.345 17.284-39.741 18.662a106.69 106.69 0 0 1-7.083.243z" fill="url(#D)"/><path d="M250.083 199.337c15.476 0 34.211 3.298 55.905 7.117l18.335 3.175c4.858.815 9.807 1.228 14.712 1.228 19.986 0 35.483-6.849 42.559-10.66-6.004 5.441-19.578 15.68-37.783 16.909a105.44 105.44 0 0 1-7.062.243c-12.088 0-22.142-2.162-36.059-5.155l-23.355-4.718-6.352-1.22c-7.801-1.542-15.17-2.998-24.415-2.998-13.522 0-29.151 3.216-49.462 10.279 11.376-4.932 27.333-11.154 39.565-13.193 4.063-.677 8.45-1.007 13.412-1.007m135.371-2.118s-18.738 13.039-46.418 13.039a88.24 88.24 0 0 1-14.613-1.22c-30.028-5.036-54.647-10.3-74.34-10.3-4.793 0-9.295.312-13.511 1.014-21.54 3.59-54.094 19.857-54.094 19.857 31.172-12.234 49.817-15.753 64.09-15.753 11.655 0 20.395 2.346 30.66 4.209 27.557 4.999 41.437 9.882 59.521 9.882 2.288 0 4.644-.078 7.103-.244 25.371-1.713 41.602-20.484 41.602-20.484h0z" class="B"/><linearGradient id="E" gradientUnits="userSpaceOnUse" x1="156.201" y1="232.331" x2="174.977" y2="243.957"><stop offset=".002" stop-color="#e5591f"/><stop offset=".058" stop-color="#e2581f"/><stop offset=".096" stop-color="#d9541e"/><stop offset=".129" stop-color="#ca4d1d"/><stop offset=".159" stop-color="#b4441b"/><stop offset=".185" stop-color="#9a3919"/><stop offset=".407" stop-color="#f59921"/><stop offset=".552" stop-color="#ea821e"/><stop offset="1" stop-color="#c93d17"/></linearGradient><path d="M145.342 239.373c1.69-2.938 4.326-5.516 7.579-7.38 3.607-2.104 7.871-3.239 12.333-3.285 4.481.008 8.758 1.096 12.364 3.148 3.278 1.827 5.948 4.377 7.676 7.299a28.62 28.62 0 0 0-8.549-5.518c-3.606-1.476-7.367-2.223-11.179-2.223l-.415.001c-3.841 0-7.655.787-11.338 2.339a28.37 28.37 0 0 0-8.471 5.619z" fill="url(#E)"/><path d="M165.254 229.007c4.432.009 8.656 1.084 12.22 3.111 2.507 1.397 4.652 3.223 6.283 5.314a28.94 28.94 0 0 0-6.9-4.074c-3.64-1.49-7.439-2.245-11.29-2.245l-.296.002h-.119c-3.879 0-7.733.795-11.459 2.365-2.474 1.065-4.757 2.451-6.824 4.139 1.602-2.101 3.719-3.944 6.204-5.367 3.56-2.077 7.772-3.198 12.181-3.245m-.002-.599c-4.354.045-8.729 1.138-12.479 3.326-3.746 2.146-6.905 5.381-8.564 9.231a28.19 28.19 0 0 1 9.722-6.934c3.567-1.503 7.384-2.316 11.222-2.316h.116l.298-.002c3.775 0 7.537.757 11.063 2.2 3.615 1.508 6.955 3.77 9.813 6.808-1.71-3.828-4.905-7.024-8.677-9.127-3.775-2.147-8.161-3.178-12.514-3.186h0z" class="B"/><linearGradient id="F" gradientUnits="userSpaceOnUse" x1="330.063" y1="231.083" x2="350.711" y2="243.868"><stop offset=".002" stop-color="#e5591f"/><stop offset=".058" stop-color="#e2581f"/><stop offset=".096" stop-color="#d9541e"/><stop offset=".129" stop-color="#ca4d1d"/><stop offset=".159" stop-color="#b4441b"/><stop offset=".185" stop-color="#9a3919"/><stop offset=".407" stop-color="#f59921"/><stop offset=".552" stop-color="#ea821e"/><stop offset="1" stop-color="#c93d17"/></linearGradient><path d="M317.972 239.256c1.732-3.561 4.535-6.724 8.046-9.041 3.955-2.66 8.851-4.146 13.787-4.188 4.992 0 9.891 1.422 13.837 4.005 3.547 2.273 6.393 5.403 8.171 8.948-2.749-2.983-5.86-5.343-9.268-7.027-3.92-1.916-8.199-2.928-12.374-2.928l-.493.002c-4.199 0-8.536 1.066-12.542 3.082-3.384 1.73-6.459 4.129-9.164 7.147z" fill="url(#F)"/><path d="M339.85 225.728v.599c4.891 0 9.731 1.405 13.633 3.959 2.818 1.806 5.189 4.161 6.921 6.836-2.355-2.239-4.943-4.061-7.728-5.438-3.961-1.935-8.285-2.958-12.506-2.958l-.341.002h-.145c-4.248 0-8.633 1.077-12.684 3.117-2.759 1.409-5.313 3.259-7.631 5.521 1.696-2.685 4.031-5.062 6.819-6.903 3.905-2.626 8.742-4.095 13.616-4.135l.046-.6m0 0h-.048c-4.943.041-9.887 1.505-13.95 4.237-4.074 2.689-7.302 6.588-8.938 11 2.935-3.656 6.436-6.583 10.357-8.587 3.88-1.953 8.129-3.051 12.412-3.051h.141l.346-.002c4.212 0 8.401 1.021 12.241 2.897 3.946 1.951 7.485 4.829 10.472 8.443-1.691-4.391-4.969-8.249-9.079-10.884-4.084-2.674-9.028-4.053-13.954-4.053h0z" class="B"/><linearGradient id="G" gradientUnits="userSpaceOnUse" x1="345.74" y1="216.532" x2="410.559" y2="233.375"><stop offset="0" stop-color="#eeeefa"/><stop offset=".096" stop-color="#c3c3ce"/><stop offset=".184" stop-color="#a3a3ae"/><stop offset=".257" stop-color="#90909a"/><stop offset=".307" stop-color="#898993"/><stop offset=".317" stop-color="#9a9aa4"/><stop offset=".336" stop-color="#b4b4bf"/><stop offset=".359" stop-color="#c9c9d5"/><stop offset=".385" stop-color="#dadae6"/><stop offset=".417" stop-color="#e6e6f1"/><stop offset=".463" stop-color="#ececf8"/><stop offset=".589" stop-color="#eeeefa"/><stop offset=".6" stop-color="#ebebf6"/><stop offset=".7" stop-color="#d0d0da"/><stop offset=".801" stop-color="#bdbdc6"/><stop offset=".901" stop-color="#b2b2ba"/><stop offset="1" stop-color="#aeaeb6"/></linearGradient><linearGradient id="H" gradientUnits="userSpaceOnUse" x1="360.817" y1="231.533" x2="371.762" y2="212.576"><stop offset="0" stop-color="#eeeefa"/><stop offset=".096" stop-color="#c3c3ce"/><stop offset=".184" stop-color="#a3a3ae"/><stop offset=".257" stop-color="#90909a"/><stop offset=".307" stop-color="#898993"/><stop offset=".317" stop-color="#9a9aa4"/><stop offset=".336" stop-color="#b4b4bf"/><stop offset=".359" stop-color="#c9c9d5"/><stop offset=".385" stop-color="#dadae6"/><stop offset=".417" stop-color="#e6e6f1"/><stop offset=".463" stop-color="#ececf8"/><stop offset=".589" stop-color="#eeeefa"/><stop offset=".6" stop-color="#ebebf6"/><stop offset=".7" stop-color="#d0d0da"/><stop offset=".801" stop-color="#bdbdc6"/><stop offset=".901" stop-color="#b2b2ba"/><stop offset="1" stop-color="#aeaeb6"/></linearGradient><path d="      M380.245,234.789c0,0-16.046-12.347-35.193-12.857c0,0,17.102,0.385,29.632-7.171      C374.684,214.761,379.822,228.735,380.245,234.789z" fill="url(#G)" stroke="url(#H)" class="C D E"/><linearGradient id="I" gradientUnits="userSpaceOnUse" x1="250.653" y1="215.514" x2="270.047" y2="249.106"><stop offset="0" stop-color="#eeeefa"/><stop offset=".096" stop-color="#c3c3ce"/><stop offset=".184" stop-color="#a3a3ae"/><stop offset=".257" stop-color="#90909a"/><stop offset=".307" stop-color="#898993"/><stop offset=".317" stop-color="#9a9aa4"/><stop offset=".336" stop-color="#b4b4bf"/><stop offset=".359" stop-color="#c9c9d5"/><stop offset=".385" stop-color="#dadae6"/><stop offset=".417" stop-color="#e6e6f1"/><stop offset=".463" stop-color="#ececf8"/><stop offset=".589" stop-color="#eeeefa"/><stop offset=".6" stop-color="#ebebf6"/><stop offset=".7" stop-color="#d0d0da"/><stop offset=".801" stop-color="#bdbdc6"/><stop offset=".901" stop-color="#b2b2ba"/><stop offset="1" stop-color="#aeaeb6"/></linearGradient><linearGradient id="J" gradientUnits="userSpaceOnUse" x1="239.371" y1="260.165" x2="276.432" y2="195.974"><stop offset="0" stop-color="#eeeefa"/><stop offset=".096" stop-color="#c3c3ce"/><stop offset=".184" stop-color="#a3a3ae"/><stop offset=".257" stop-color="#90909a"/><stop offset=".307" stop-color="#898993"/><stop offset=".317" stop-color="#9a9aa4"/><stop offset=".336" stop-color="#b4b4bf"/><stop offset=".359" stop-color="#c9c9d5"/><stop offset=".385" stop-color="#dadae6"/><stop offset=".417" stop-color="#e6e6f1"/><stop offset=".463" stop-color="#ececf8"/><stop offset=".589" stop-color="#eeeefa"/><stop offset=".6" stop-color="#ebebf6"/><stop offset=".7" stop-color="#d0d0da"/><stop offset=".801" stop-color="#bdbdc6"/><stop offset=".901" stop-color="#b2b2ba"/><stop offset="1" stop-color="#aeaeb6"/></linearGradient><path d="      M192.225,232.447c0,0,31.395,5.454,62.227,2.534c28.831-2.73,51.105-12.415,69.126-11.289c0,0-11.685,4.355-18.017,15.156      c0,0-10.844-1.932-43.788,0.321C228.829,241.422,201.517,234.981,192.225,232.447z" fill="url(#I)" stroke="url(#J)" class="C D E"/><linearGradient id="K" gradientUnits="userSpaceOnUse" x1="288.838" y1="243.073" x2="326.407" y2="308.144"><stop offset="0" stop-color="#aeaeb6"/><stop offset=".082" stop-color="#c8c8d2"/><stop offset=".187" stop-color="#e4e4ef"/><stop offset=".247" stop-color="#eeeefa"/><stop offset=".279" stop-color="#e6e6f2"/><stop offset=".52" stop-color="#aeaeb6"/><stop offset=".669" stop-color="#ceced8"/><stop offset=".838" stop-color="#eeeefa"/><stop offset=".845" stop-color="#ebebf7"/><stop offset=".948" stop-color="#bfbfc8"/><stop offset="1" stop-color="#aeaeb6"/></linearGradient><path d="M201.216 282.571l2.961-5.607c2.871 2.108 6.639 3.274 10.363 3.274 3.993 0 6.505-1.391 6.505-3.679 0-5.023-15.567-2.332-15.567-12.336 0-6.46 5.652-10.633 14.355-10.633 4.217 0 8.12.942 10.856 2.692l-2.736 5.563c-2.378-1.615-5.428-2.423-8.524-2.423-4.217 0-6.684 1.615-6.684 3.858-.045 5.159 15.566 2.468 15.566 12.112 0 6.505-5.742 10.677-14.49 10.677-5.113.001-9.958-1.524-12.605-3.498z" fill="url(#K)"/><path d="M243.834 259.962l-1.346 6.818h14.58l-1.122 5.652h-14.625l-1.436 7.268h17.137l-1.211 5.832h-24.315l6.281-31.402h23.731l-1.211 5.832h-16.463z" fill="url(#K)"/><path d="M283.985 275.843l5.473 9.689h-7.671l-4.935-8.793h-6.191l-1.75 8.793h-7.313l6.281-31.402h12.785c7.806 0 12.292 3.589 12.292 9.734.001 5.922-3.364 10.229-8.971 11.979zm1.615-11.306c0-3.05-2.153-4.485-5.877-4.485h-5.742l-2.198 10.9h6.191c4.799 0 7.626-2.243 7.626-6.415z" fill="url(#K)"/><path d="M331.044 254.13l-19.874 31.402h-7.133l-7.313-31.402h7.492l5.069 22.386 14.221-22.386h7.538z" fill="url(#K)"/><path d="M334.319 254.13h7.312l-6.28 31.402h-7.313l6.281-31.402z" fill="url(#K)"/><path d="M343.74 272.433c0-10.722 7.851-18.842 19.514-18.842 5.563 0 10.094 1.975 12.337 5.563l-5.249 4.307c-1.615-2.378-4.127-3.679-7.581-3.679-7.088 0-11.664 5.428-11.664 12.202 0 4.755 3.14 7.896 8.793 7.896 3.185 0 6.011-1.122 8.344-3.634l4.307 4.396c-3.319 3.857-7.896 5.428-13.279 5.428-9.6 0-15.522-5.562-15.522-13.637z" fill="url(#K)"/><path d="M387.973 259.962l-1.346 6.818h14.58l-1.122 5.652H385.46l-1.436 7.268h17.137l-1.211 5.832h-24.315l6.281-31.402h23.731l-1.211 5.832h-16.463z" fill="url(#K)"/><path d="M219.833 254.091c3.994 0 7.596.843 10.207 2.38l-2.287 4.65c-2.314-1.421-5.245-2.198-8.323-2.198-4.364 0-7.184 1.711-7.184 4.354-.022 2.564 3.068 3.429 6.339 4.345 4.325 1.211 9.227 2.583 9.227 7.772 0 6.182-5.491 10.177-13.99 10.177-4.515 0-9.145-1.228-11.96-3.152l2.491-4.718c2.857 1.936 6.535 3.038 10.186 3.038 4.321 0 7.005-1.601 7.005-4.179 0-2.462-2.862-3.27-6.176-4.206-4.402-1.244-9.391-2.653-9.391-8.13.001-6.156 5.44-10.133 13.856-10.133m0-.5c-8.703 0-14.355 4.173-14.355 10.633 0 10.004 15.567 7.313 15.567 12.336 0 2.288-2.512 3.679-6.505 3.679-3.724 0-7.492-1.166-10.363-3.274l-2.961 5.607c2.647 1.974 7.492 3.499 12.606 3.499 8.748 0 14.49-4.172 14.49-10.677 0-9.645-15.611-6.953-15.566-12.112 0-2.243 2.467-3.858 6.684-3.858 3.096 0 6.146.808 8.524 2.423l2.736-5.563c-2.736-1.751-6.64-2.693-10.857-2.693h0zm41.062 1.039l-1.004 4.832h-16.057-.411l-.08.403-1.346 6.818-.118.597h.608 13.971l-.923 4.652h-14.214-.411l-.08.403-1.436 7.268-.118.597h.608 16.522l-1.003 4.832h-23.298l6.081-30.402h22.709m.614-.5h-23.731l-6.281 31.402h24.315l1.211-5.832h-17.137l1.436-7.268h14.625l1.122-5.652h-14.58l1.346-6.818h16.464l1.21-5.832h0zm19.156.5c7.494 0 11.792 3.366 11.792 9.234 0 5.599-3.142 9.791-8.621 11.501l-.591.184.304.539 5.052 8.943h-6.522l-4.791-8.538-.143-.255h-.293-6.191-.41l-.08.402-1.669 8.391h-6.292l6.081-30.402h12.374m-9.493 16.823h.611 6.191c5.164 0 8.126-2.52 8.126-6.915 0-3.215-2.265-4.985-6.377-4.985h-5.742-.409l-.081.401-2.198 10.9-.121.599m9.493-17.322H267.88l-6.281 31.402h7.313l1.75-8.793h6.191l4.935 8.793h7.671l-5.473-9.689c5.607-1.75 8.972-6.057 8.972-11.979-.001-6.145-4.487-9.734-12.293-9.734h0zm-8.882 16.822l2.198-10.9h5.742c3.724 0 5.877 1.436 5.877 4.485 0 4.172-2.827 6.415-7.626 6.415h-6.191 0zm58.353-16.322l-19.241 30.402h-6.461l-7.08-30.402h6.462l4.981 21.996.265 1.172.644-1.014 14.074-22.154h6.356m.908-.5h-7.537l-14.221 22.386-5.069-22.386h-7.492l7.313 31.402h7.133l19.873-31.402h0zm9.977.5l-6.08 30.402h-6.293l6.081-30.402h6.292m.61-.5h-7.312l-6.281 31.402h7.313l6.28-31.402h0zm21.623-.039c5.255 0 9.477 1.803 11.672 4.963l-4.49 3.684c-1.756-2.293-4.335-3.455-7.675-3.455-7.048 0-12.164 5.342-12.164 12.702 0 5.179 3.561 8.396 9.293 8.396 3.266 0 6.071-1.149 8.346-3.417l3.621 3.696c-3.017 3.303-7.143 4.911-12.596 4.911-9.125 0-15.021-5.157-15.021-13.138 0-10.8 7.819-18.342 19.014-18.342m0-.5c-11.664 0-19.514 8.12-19.514 18.842 0 8.075 5.921 13.638 15.521 13.638 5.383 0 9.959-1.57 13.279-5.428l-4.307-4.396c-2.333 2.512-5.159 3.634-8.344 3.634-5.653 0-8.793-3.141-8.793-7.896 0-6.774 4.576-12.202 11.664-12.202 3.454 0 5.966 1.301 7.581 3.679l5.249-4.307c-2.242-3.59-6.773-5.564-12.336-5.564h0zm41.78 1.039l-1.004 4.832h-16.057-.411l-.08.403-1.346 6.818-.118.597h.608 13.971l-.923 4.652H385.46h-.411l-.08.403-1.436 7.268-.118.597h.608 16.522l-1.003 4.832h-23.298l6.081-30.402h22.709m.614-.5h-23.731l-6.281 31.402h24.315l1.211-5.832h-17.137l1.436-7.268h14.625l1.122-5.652h-14.58l1.346-6.818h16.464l1.21-5.832h0z" fill="#eeeefa"/><linearGradient id="L" gradientUnits="userSpaceOnUse" x1="139.194" y1="255.266" x2="161.004" y2="293.042"><stop offset=".002" stop-color="#e5591f"/><stop offset=".093" stop-color="#eb7120"/><stop offset=".226" stop-color="#f28e21"/><stop offset=".302" stop-color="#f59921"/><stop offset=".472" stop-color="#ea821e"/><stop offset="1" stop-color="#c93d17"/></linearGradient><path d="M96.302 272.028c0-11.035 8.209-18.796 19.829-18.796 6.011 0 10.946 2.242 13.234 6.28l-7.626 5.966c-1.346-2.332-3.41-3.678-6.281-3.678-4.979 0-8.479 3.947-8.479 9.555 0 3.679 2.557 6.146 6.46 6.146 2.467 0 4.845-1.032 6.999-3.634l6.235 5.966c-3.813 4.666-8.479 6.236-14.266 6.236-9.735.001-16.105-5.696-16.105-14.041z" fill="url(#L)"/><path d="M150.809 279.879h-11.978l-3.14 5.474h-11.17l20.008-31.402h10.408l7.447 31.402H151.84l-1.031-5.474zm-1.481-7.626l-1.525-8.03-4.621 8.03h6.146z" fill="url(#L)"/><path d="M189.031 276.201l5.249 9.151h-10.991l-4.441-7.896h-2.602l-1.57 7.896h-10.587l6.28-31.402h14.086c8.299 0 13.055 3.813 13.055 10.317 0 5.608-3.141 9.915-8.479 11.934zm-6.191-14.087h-3.544l-1.48 7.357h4.351c2.916 0 4.621-1.525 4.621-4.172 0-2.242-1.525-3.185-3.948-3.185z" fill="url(#L)"/><path d="M116.131 253.732c5.769 0 10.323 2.056 12.579 5.658l-6.839 5.35c-1.498-2.283-3.653-3.439-6.413-3.439-5.286 0-8.979 4.135-8.979 10.055 0 3.975 2.797 6.646 6.96 6.646 2.65 0 5.014-1.146 7.034-3.408l5.516 5.278c-3.371 3.937-7.582 5.698-13.582 5.698-9.334 0-15.605-5.442-15.605-13.542 0-10.772 7.948-18.296 19.329-18.296m0-.5c-11.619 0-19.829 7.761-19.829 18.796 0 8.345 6.37 14.042 16.105 14.042 5.787 0 10.453-1.57 14.266-6.236l-6.235-5.966c-2.153 2.602-4.531 3.634-6.999 3.634-3.903 0-6.46-2.468-6.46-6.146 0-5.607 3.499-9.555 8.479-9.555 2.871 0 4.935 1.346 6.281 3.678l7.626-5.966c-2.288-4.038-7.223-6.281-13.234-6.281h0zm38.41 1.218l7.21 30.402h-9.495l-.955-5.066-.077-.407h-.415-11.978-.29l-.144.251-2.996 5.222h-9.969l19.371-30.402h9.738m-12.223 18.303h.865 6.146.604l-.113-.593-1.525-8.03-.252-1.325-.673 1.169-4.621 8.03-.431.749m12.618-18.803h-10.408l-20.008 31.402h11.17l3.14-5.474h11.978l1.032 5.474h10.542l-7.446-31.402h0zm-11.754 18.303l4.621-8.03 1.525 8.03h-6.146 0zm41.273-17.803c7.979 0 12.555 3.578 12.555 9.817 0 5.326-2.973 9.505-8.156 11.466l-.549.208.292.509 4.82 8.403h-9.836l-4.298-7.641-.143-.255h-.292-2.602-.41l-.08.402-1.49 7.493h-9.567l6.08-30.402h13.676m-7.25 15.522h.611 4.351c3.206 0 5.121-1.746 5.121-4.672 0-2.377-1.579-3.686-4.447-3.686h-3.544-.409l-.081.401-1.48 7.357-.122.6m7.25-16.022h-14.086l-6.28 31.402h10.587l1.57-7.896h2.602l4.441 7.896h10.991l-5.249-9.151c5.338-2.02 8.479-6.326 8.479-11.934 0-6.504-4.756-10.317-13.055-10.317h0zm-6.639 15.522l1.48-7.357h3.544c2.422 0 3.947.942 3.947 3.186 0 2.646-1.705 4.172-4.621 4.172h-4.35v-.001z" class="B"/><text transform="translate(164.162 313.086)" fill="#fc7808" font-family="Montserrat-Italic" font-size="20.21">your tagline here</text></svg>