<?xml version="1.0" encoding="utf-8"?>
<!-- Generator: Adobe Illustrator 27.5.0, SVG Export Plug-In . SVG Version: 6.00 Build 0)  -->
<svg version="1.1" xmlns="http://www.w3.org/2000/svg" xmlns:xlink="http://www.w3.org/1999/xlink" x="0px" y="0px"
	 viewBox="0 0 500 500" style="enable-background:new 0 0 500 500;" xml:space="preserve">
<g id="BACKGROUND">
	<rect style="fill:#151515;" width="500" height="500"/>
</g>
<g id="OBJECTS">
	<g>
		<g>
			<linearGradient id="SVGID_1_" gradientUnits="userSpaceOnUse" x1="117.3547" y1="233.1096" x2="158.696" y2="250.9731">
				<stop  offset="0" style="stop-color:#EEEEFA"/>
				<stop  offset="0.0964" style="stop-color:#C3C3CE"/>
				<stop  offset="0.1839" style="stop-color:#A3A3AE"/>
				<stop  offset="0.257" style="stop-color:#90909A"/>
				<stop  offset="0.3068" style="stop-color:#898993"/>
				<stop  offset="0.3168" style="stop-color:#9A9AA4"/>
				<stop  offset="0.3363" style="stop-color:#B4B4BF"/>
				<stop  offset="0.3587" style="stop-color:#C9C9D5"/>
				<stop  offset="0.3849" style="stop-color:#DADAE6"/>
				<stop  offset="0.4173" style="stop-color:#E6E6F1"/>
				<stop  offset="0.4627" style="stop-color:#ECECF8"/>
				<stop  offset="0.5888" style="stop-color:#EEEEFA"/>
				<stop  offset="0.5999" style="stop-color:#EBEBF6"/>
				<stop  offset="0.7001" style="stop-color:#D0D0DA"/>
				<stop  offset="0.8006" style="stop-color:#BDBDC6"/>
				<stop  offset="0.9006" style="stop-color:#B2B2BA"/>
				<stop  offset="1" style="stop-color:#AEAEB6"/>
			</linearGradient>
			
				<linearGradient id="SVGID_00000114060328808359534640000009531466982105377684_" gradientUnits="userSpaceOnUse" x1="121.8482" y1="246.1749" x2="132.1282" y2="228.3695">
				<stop  offset="0" style="stop-color:#EEEEFA"/>
				<stop  offset="0.0964" style="stop-color:#C3C3CE"/>
				<stop  offset="0.1839" style="stop-color:#A3A3AE"/>
				<stop  offset="0.257" style="stop-color:#90909A"/>
				<stop  offset="0.3068" style="stop-color:#898993"/>
				<stop  offset="0.3168" style="stop-color:#9A9AA4"/>
				<stop  offset="0.3363" style="stop-color:#B4B4BF"/>
				<stop  offset="0.3587" style="stop-color:#C9C9D5"/>
				<stop  offset="0.3849" style="stop-color:#DADAE6"/>
				<stop  offset="0.4173" style="stop-color:#E6E6F1"/>
				<stop  offset="0.4627" style="stop-color:#ECECF8"/>
				<stop  offset="0.5888" style="stop-color:#EEEEFA"/>
				<stop  offset="0.5999" style="stop-color:#EBEBF6"/>
				<stop  offset="0.7001" style="stop-color:#D0D0DA"/>
				<stop  offset="0.8006" style="stop-color:#BDBDC6"/>
				<stop  offset="0.9006" style="stop-color:#B2B2BA"/>
				<stop  offset="1" style="stop-color:#AEAEB6"/>
			</linearGradient>
			
				<path style="fill:url(#SVGID_1_);stroke:url(#SVGID_00000114060328808359534640000009531466982105377684_);stroke-width:0.8633;stroke-linecap:round;stroke-linejoin:round;stroke-miterlimit:10;" d="
				M114.546,241.461c0,0,4.91-7.11,24.884-8.377c0,0-3.942,4.083-6.335,5.702c-2.393,1.619-5.42,0.774-10.277,1.267
				C117.96,240.545,114.546,241.461,114.546,241.461z"/>
			<g>
				
					<linearGradient id="SVGID_00000109727844484040401870000000555558361037049779_" gradientUnits="userSpaceOnUse" x1="174.8387" y1="199.0913" x2="254.5026" y2="248.418">
					<stop  offset="0.0024" style="stop-color:#E5591F"/>
					<stop  offset="0.0576" style="stop-color:#E2581F"/>
					<stop  offset="0.0957" style="stop-color:#D9541E"/>
					<stop  offset="0.1287" style="stop-color:#CA4D1D"/>
					<stop  offset="0.1585" style="stop-color:#B4441B"/>
					<stop  offset="0.1849" style="stop-color:#9A3919"/>
					<stop  offset="0.4073" style="stop-color:#F59921"/>
					<stop  offset="0.5517" style="stop-color:#EA821E"/>
					<stop  offset="1" style="stop-color:#C93D17"/>
				</linearGradient>
				<path style="fill:url(#SVGID_00000109727844484040401870000000555558361037049779_);" d="M126.336,232.819
					c7.431-3.854,26.343-11.677,57.385-11.677c4.306,0,8.756,0.151,13.227,0.449c12.219,0.815,24.327,1.229,35.986,1.229
					c41.335,0,66.723-5.192,72.633-6.545c-3.986,2.855-20.068,12.145-60.485,12.145c-6.903,0-14.279-0.272-21.922-0.809
					c-21.298-1.495-36.847-2.19-48.935-2.19C151.178,225.421,138.84,228.008,126.336,232.819z"/>
				<path style="fill:#C93D17;" d="M304.089,216.909c-5.57,3.487-22.079,11.211-59.007,11.211c-6.896,0-14.265-0.272-21.902-0.808
					c-21.304-1.495-36.86-2.191-48.955-2.191c-19.322,0-31.136,1.816-41.822,5.236c9.626-3.955,26.623-8.914,51.318-8.914
					c4.299,0,8.742,0.151,13.207,0.449c12.226,0.816,24.34,1.229,36.006,1.229C271.37,223.12,296.038,218.631,304.089,216.909
					 M306.821,215.667c0,0-26.094,6.853-73.888,6.853c-10.88,0-22.89-0.355-35.966-1.228c-4.641-0.309-9.054-0.45-13.246-0.45
					c-41.566,0-61.185,13.825-61.185,13.825c14.425-6.007,26.688-8.948,51.689-8.948c12.5,0,28.185,0.735,48.913,2.19
					c8.011,0.562,15.304,0.809,21.943,0.809C293.326,228.719,306.821,215.667,306.821,215.667L306.821,215.667z"/>
			</g>
			<g>
				
					<linearGradient id="SVGID_00000155857149185517267500000002179480026949819535_" gradientUnits="userSpaceOnUse" x1="242.0747" y1="180.0946" x2="328.3189" y2="233.4957">
					<stop  offset="0.0024" style="stop-color:#E5591F"/>
					<stop  offset="0.0576" style="stop-color:#E2581F"/>
					<stop  offset="0.0957" style="stop-color:#D9541E"/>
					<stop  offset="0.1287" style="stop-color:#CA4D1D"/>
					<stop  offset="0.1585" style="stop-color:#B4441B"/>
					<stop  offset="0.1849" style="stop-color:#9A3919"/>
					<stop  offset="0.4073" style="stop-color:#F59921"/>
					<stop  offset="0.5517" style="stop-color:#EA821E"/>
					<stop  offset="1" style="stop-color:#C93D17"/>
				</linearGradient>
				<path style="fill:url(#SVGID_00000155857149185517267500000002179480026949819535_);" d="M336.748,217.648
					c-12.119,0-22.186-2.165-36.121-5.161c-6.703-1.441-14.301-3.076-23.346-4.717c-2.173-0.395-4.279-0.811-6.358-1.221
					c-7.786-1.539-15.141-2.992-24.355-2.992c-15.129,0-32.911,4.039-56.976,13.008c10.769-4.952,31.78-13.975,47.029-16.516
					c4.08-0.681,8.483-1.011,13.461-1.011c15.504,0,34.254,3.301,55.964,7.122c5.888,1.037,11.977,2.108,18.326,3.174
					c4.841,0.811,9.774,1.224,14.662,1.224c22.261,0,38.927-8.521,44.538-11.815c-4.74,4.663-19.345,17.284-39.741,18.662
					C341.438,217.565,339.055,217.648,336.748,217.648z"/>
				<path style="fill:#C93D17;" d="M250.083,199.337c15.476,0,34.211,3.298,55.905,7.117c5.891,1.037,11.982,2.109,18.335,3.175
					c4.858,0.815,9.807,1.228,14.712,1.228c19.986,0,35.483-6.849,42.559-10.66c-6.004,5.441-19.578,15.68-37.783,16.909
					c-2.387,0.161-4.763,0.243-7.062,0.243c-12.088,0-22.142-2.162-36.059-5.155c-6.705-1.442-14.305-3.076-23.355-4.718
					c-2.17-0.394-4.296-0.814-6.352-1.22c-7.801-1.542-15.17-2.998-24.415-2.998c-13.522,0-29.151,3.216-49.462,10.279
					c11.376-4.932,27.333-11.154,39.565-13.193C240.734,199.667,245.121,199.337,250.083,199.337 M385.454,197.219
					c0,0-18.738,13.039-46.418,13.039c-4.635,0-9.522-0.366-14.613-1.22c-30.028-5.036-54.647-10.3-74.34-10.3
					c-4.793,0-9.295,0.312-13.511,1.014c-21.54,3.59-54.094,19.857-54.094,19.857c31.172-12.234,49.817-15.753,64.09-15.753
					c11.655,0,20.395,2.346,30.66,4.209c27.557,4.999,41.437,9.882,59.521,9.882c2.288,0,4.644-0.078,7.103-0.244
					C369.223,215.99,385.454,197.219,385.454,197.219L385.454,197.219z"/>
			</g>
			<g>
				
					<linearGradient id="SVGID_00000036943296511098355940000015968716782669763996_" gradientUnits="userSpaceOnUse" x1="156.2011" y1="232.3312" x2="174.9766" y2="243.9568">
					<stop  offset="0.0024" style="stop-color:#E5591F"/>
					<stop  offset="0.0576" style="stop-color:#E2581F"/>
					<stop  offset="0.0957" style="stop-color:#D9541E"/>
					<stop  offset="0.1287" style="stop-color:#CA4D1D"/>
					<stop  offset="0.1585" style="stop-color:#B4441B"/>
					<stop  offset="0.1849" style="stop-color:#9A3919"/>
					<stop  offset="0.4073" style="stop-color:#F59921"/>
					<stop  offset="0.5517" style="stop-color:#EA821E"/>
					<stop  offset="1" style="stop-color:#C93D17"/>
				</linearGradient>
				<path style="fill:url(#SVGID_00000036943296511098355940000015968716782669763996_);" d="M145.342,239.373
					c1.69-2.938,4.326-5.516,7.579-7.38c3.607-2.104,7.871-3.239,12.333-3.285c4.481,0.008,8.758,1.096,12.364,3.148
					c3.278,1.827,5.948,4.377,7.676,7.299c-2.51-2.343-5.378-4.195-8.549-5.518c-3.606-1.476-7.367-2.223-11.179-2.223l-0.415,0.001
					c-3.841,0-7.655,0.787-11.338,2.339C150.658,235.112,147.816,236.998,145.342,239.373z"/>
				<path style="fill:#C93D17;" d="M165.254,229.007c4.432,0.009,8.656,1.084,12.22,3.111c2.507,1.397,4.652,3.223,6.283,5.314
					c-2.097-1.669-4.405-3.033-6.9-4.074c-3.64-1.49-7.439-2.245-11.29-2.245l-0.296,0.002l-0.119,0
					c-3.879,0-7.733,0.795-11.459,2.365c-2.474,1.065-4.757,2.451-6.824,4.139c1.602-2.101,3.719-3.944,6.204-5.367
					C156.633,230.175,160.845,229.054,165.254,229.007 M165.252,228.408c-4.354,0.045-8.729,1.138-12.479,3.326
					c-3.746,2.146-6.905,5.381-8.564,9.231c2.811-3.081,6.124-5.386,9.722-6.934c3.567-1.503,7.384-2.316,11.222-2.316
					c0.038,0,0.078,0,0.116,0c0.1-0.001,0.199-0.002,0.298-0.002c3.775,0,7.537,0.757,11.063,2.2
					c3.615,1.508,6.955,3.77,9.813,6.808c-1.71-3.828-4.905-7.024-8.677-9.127C173.991,229.447,169.605,228.416,165.252,228.408
					L165.252,228.408z"/>
			</g>
			<g>
				
					<linearGradient id="SVGID_00000078026137544651915380000007992528162931261073_" gradientUnits="userSpaceOnUse" x1="330.0632" y1="231.0832" x2="350.7108" y2="243.8679">
					<stop  offset="0.0024" style="stop-color:#E5591F"/>
					<stop  offset="0.0576" style="stop-color:#E2581F"/>
					<stop  offset="0.0957" style="stop-color:#D9541E"/>
					<stop  offset="0.1287" style="stop-color:#CA4D1D"/>
					<stop  offset="0.1585" style="stop-color:#B4441B"/>
					<stop  offset="0.1849" style="stop-color:#9A3919"/>
					<stop  offset="0.4073" style="stop-color:#F59921"/>
					<stop  offset="0.5517" style="stop-color:#EA821E"/>
					<stop  offset="1" style="stop-color:#C93D17"/>
				</linearGradient>
				<path style="fill:url(#SVGID_00000078026137544651915380000007992528162931261073_);" d="M317.972,239.256
					c1.732-3.561,4.535-6.724,8.046-9.041c3.955-2.66,8.851-4.146,13.787-4.188c4.992,0,9.891,1.422,13.837,4.005
					c3.547,2.273,6.393,5.403,8.171,8.948c-2.749-2.983-5.86-5.343-9.268-7.027c-3.92-1.916-8.199-2.928-12.374-2.928l-0.493,0.002
					c-4.199,0-8.536,1.066-12.542,3.082C323.752,233.839,320.677,236.238,317.972,239.256z"/>
				<path style="fill:#C93D17;" d="M339.85,225.728v0.599c4.891,0,9.731,1.405,13.633,3.959c2.818,1.806,5.189,4.161,6.921,6.836
					c-2.355-2.239-4.943-4.061-7.728-5.438c-3.961-1.935-8.285-2.958-12.506-2.958l-0.341,0.002l-0.145,0
					c-4.248,0-8.633,1.077-12.684,3.117c-2.759,1.409-5.313,3.259-7.631,5.521c1.696-2.685,4.031-5.062,6.819-6.903
					c3.905-2.626,8.742-4.095,13.616-4.135L339.85,225.728 M339.85,225.728c-0.016,0-0.032,0-0.048,0
					c-4.943,0.041-9.887,1.505-13.95,4.237c-4.074,2.689-7.302,6.588-8.938,11c2.935-3.656,6.436-6.583,10.357-8.587
					c3.88-1.953,8.129-3.051,12.412-3.051c0.047,0,0.094,0,0.141,0c0.116-0.002,0.231-0.002,0.346-0.002
					c4.212,0,8.401,1.021,12.241,2.897c3.946,1.951,7.485,4.829,10.472,8.443c-1.691-4.391-4.969-8.249-9.079-10.884
					C349.72,227.107,344.776,225.728,339.85,225.728L339.85,225.728z"/>
			</g>
			
				<linearGradient id="SVGID_00000090265596296886951290000011858169478281783465_" gradientUnits="userSpaceOnUse" x1="345.7398" y1="216.5318" x2="410.5589" y2="233.3746">
				<stop  offset="0" style="stop-color:#EEEEFA"/>
				<stop  offset="0.0964" style="stop-color:#C3C3CE"/>
				<stop  offset="0.1839" style="stop-color:#A3A3AE"/>
				<stop  offset="0.257" style="stop-color:#90909A"/>
				<stop  offset="0.3068" style="stop-color:#898993"/>
				<stop  offset="0.3168" style="stop-color:#9A9AA4"/>
				<stop  offset="0.3363" style="stop-color:#B4B4BF"/>
				<stop  offset="0.3587" style="stop-color:#C9C9D5"/>
				<stop  offset="0.3849" style="stop-color:#DADAE6"/>
				<stop  offset="0.4173" style="stop-color:#E6E6F1"/>
				<stop  offset="0.4627" style="stop-color:#ECECF8"/>
				<stop  offset="0.5888" style="stop-color:#EEEEFA"/>
				<stop  offset="0.5999" style="stop-color:#EBEBF6"/>
				<stop  offset="0.7001" style="stop-color:#D0D0DA"/>
				<stop  offset="0.8006" style="stop-color:#BDBDC6"/>
				<stop  offset="0.9006" style="stop-color:#B2B2BA"/>
				<stop  offset="1" style="stop-color:#AEAEB6"/>
			</linearGradient>
			
				<linearGradient id="SVGID_00000119089012628254909060000016956123872455688335_" gradientUnits="userSpaceOnUse" x1="360.8169" y1="231.5327" x2="371.7617" y2="212.5757">
				<stop  offset="0" style="stop-color:#EEEEFA"/>
				<stop  offset="0.0964" style="stop-color:#C3C3CE"/>
				<stop  offset="0.1839" style="stop-color:#A3A3AE"/>
				<stop  offset="0.257" style="stop-color:#90909A"/>
				<stop  offset="0.3068" style="stop-color:#898993"/>
				<stop  offset="0.3168" style="stop-color:#9A9AA4"/>
				<stop  offset="0.3363" style="stop-color:#B4B4BF"/>
				<stop  offset="0.3587" style="stop-color:#C9C9D5"/>
				<stop  offset="0.3849" style="stop-color:#DADAE6"/>
				<stop  offset="0.4173" style="stop-color:#E6E6F1"/>
				<stop  offset="0.4627" style="stop-color:#ECECF8"/>
				<stop  offset="0.5888" style="stop-color:#EEEEFA"/>
				<stop  offset="0.5999" style="stop-color:#EBEBF6"/>
				<stop  offset="0.7001" style="stop-color:#D0D0DA"/>
				<stop  offset="0.8006" style="stop-color:#BDBDC6"/>
				<stop  offset="0.9006" style="stop-color:#B2B2BA"/>
				<stop  offset="1" style="stop-color:#AEAEB6"/>
			</linearGradient>
			
				<path style="fill:url(#SVGID_00000090265596296886951290000011858169478281783465_);stroke:url(#SVGID_00000119089012628254909060000016956123872455688335_);stroke-width:0.8633;stroke-linecap:round;stroke-linejoin:round;stroke-miterlimit:10;" d="
				M380.245,234.789c0,0-16.046-12.347-35.193-12.857c0,0,17.102,0.385,29.632-7.171
				C374.684,214.761,379.822,228.735,380.245,234.789z"/>
			
				<linearGradient id="SVGID_00000026147844945785250350000004553162890906780559_" gradientUnits="userSpaceOnUse" x1="250.6526" y1="215.5137" x2="270.0471" y2="249.1061">
				<stop  offset="0" style="stop-color:#EEEEFA"/>
				<stop  offset="0.0964" style="stop-color:#C3C3CE"/>
				<stop  offset="0.1839" style="stop-color:#A3A3AE"/>
				<stop  offset="0.257" style="stop-color:#90909A"/>
				<stop  offset="0.3068" style="stop-color:#898993"/>
				<stop  offset="0.3168" style="stop-color:#9A9AA4"/>
				<stop  offset="0.3363" style="stop-color:#B4B4BF"/>
				<stop  offset="0.3587" style="stop-color:#C9C9D5"/>
				<stop  offset="0.3849" style="stop-color:#DADAE6"/>
				<stop  offset="0.4173" style="stop-color:#E6E6F1"/>
				<stop  offset="0.4627" style="stop-color:#ECECF8"/>
				<stop  offset="0.5888" style="stop-color:#EEEEFA"/>
				<stop  offset="0.5999" style="stop-color:#EBEBF6"/>
				<stop  offset="0.7001" style="stop-color:#D0D0DA"/>
				<stop  offset="0.8006" style="stop-color:#BDBDC6"/>
				<stop  offset="0.9006" style="stop-color:#B2B2BA"/>
				<stop  offset="1" style="stop-color:#AEAEB6"/>
			</linearGradient>
			
				<linearGradient id="SVGID_00000122684381884915722650000008988113668545531804_" gradientUnits="userSpaceOnUse" x1="239.3712" y1="260.1652" x2="276.4321" y2="195.9737">
				<stop  offset="0" style="stop-color:#EEEEFA"/>
				<stop  offset="0.0964" style="stop-color:#C3C3CE"/>
				<stop  offset="0.1839" style="stop-color:#A3A3AE"/>
				<stop  offset="0.257" style="stop-color:#90909A"/>
				<stop  offset="0.3068" style="stop-color:#898993"/>
				<stop  offset="0.3168" style="stop-color:#9A9AA4"/>
				<stop  offset="0.3363" style="stop-color:#B4B4BF"/>
				<stop  offset="0.3587" style="stop-color:#C9C9D5"/>
				<stop  offset="0.3849" style="stop-color:#DADAE6"/>
				<stop  offset="0.4173" style="stop-color:#E6E6F1"/>
				<stop  offset="0.4627" style="stop-color:#ECECF8"/>
				<stop  offset="0.5888" style="stop-color:#EEEEFA"/>
				<stop  offset="0.5999" style="stop-color:#EBEBF6"/>
				<stop  offset="0.7001" style="stop-color:#D0D0DA"/>
				<stop  offset="0.8006" style="stop-color:#BDBDC6"/>
				<stop  offset="0.9006" style="stop-color:#B2B2BA"/>
				<stop  offset="1" style="stop-color:#AEAEB6"/>
			</linearGradient>
			
				<path style="fill:url(#SVGID_00000026147844945785250350000004553162890906780559_);stroke:url(#SVGID_00000122684381884915722650000008988113668545531804_);stroke-width:0.8633;stroke-linecap:round;stroke-linejoin:round;stroke-miterlimit:10;" d="
				M192.225,232.447c0,0,31.395,5.454,62.227,2.534c28.831-2.73,51.105-12.415,69.126-11.289c0,0-11.685,4.355-18.017,15.156
				c0,0-10.844-1.932-43.788,0.321C228.829,241.422,201.517,234.981,192.225,232.447z"/>
		</g>
	</g>
</g>
<g id="TEXTS">
	<g>
		<g>
			
				<linearGradient id="SVGID_00000016072345050007570790000012407027262498192817_" gradientUnits="userSpaceOnUse" x1="288.8384" y1="243.0731" x2="326.4073" y2="308.1443">
				<stop  offset="0" style="stop-color:#AEAEB6"/>
				<stop  offset="0.0824" style="stop-color:#C8C8D2"/>
				<stop  offset="0.1874" style="stop-color:#E4E4EF"/>
				<stop  offset="0.2472" style="stop-color:#EEEEFA"/>
				<stop  offset="0.2787" style="stop-color:#E6E6F2"/>
				<stop  offset="0.5196" style="stop-color:#AEAEB6"/>
				<stop  offset="0.6694" style="stop-color:#CECED8"/>
				<stop  offset="0.8382" style="stop-color:#EEEEFA"/>
				<stop  offset="0.8453" style="stop-color:#EBEBF7"/>
				<stop  offset="0.9484" style="stop-color:#BFBFC8"/>
				<stop  offset="1" style="stop-color:#AEAEB6"/>
			</linearGradient>
			<path style="fill:url(#SVGID_00000016072345050007570790000012407027262498192817_);" d="M201.216,282.571l2.961-5.607
				c2.871,2.108,6.639,3.274,10.363,3.274c3.993,0,6.505-1.391,6.505-3.679c0-5.023-15.567-2.332-15.567-12.336
				c0-6.46,5.652-10.633,14.355-10.633c4.217,0,8.12,0.942,10.856,2.692l-2.736,5.563c-2.378-1.615-5.428-2.423-8.524-2.423
				c-4.217,0-6.684,1.615-6.684,3.858c-0.045,5.159,15.566,2.468,15.566,12.112c0,6.505-5.742,10.677-14.49,10.677
				C208.708,286.07,203.863,284.545,201.216,282.571z"/>
			
				<linearGradient id="SVGID_00000005227188907924650620000004330505965342451844_" gradientUnits="userSpaceOnUse" x1="288.8384" y1="243.0731" x2="326.4073" y2="308.1443">
				<stop  offset="0" style="stop-color:#AEAEB6"/>
				<stop  offset="0.0824" style="stop-color:#C8C8D2"/>
				<stop  offset="0.1874" style="stop-color:#E4E4EF"/>
				<stop  offset="0.2472" style="stop-color:#EEEEFA"/>
				<stop  offset="0.2787" style="stop-color:#E6E6F2"/>
				<stop  offset="0.5196" style="stop-color:#AEAEB6"/>
				<stop  offset="0.6694" style="stop-color:#CECED8"/>
				<stop  offset="0.8382" style="stop-color:#EEEEFA"/>
				<stop  offset="0.8453" style="stop-color:#EBEBF7"/>
				<stop  offset="0.9484" style="stop-color:#BFBFC8"/>
				<stop  offset="1" style="stop-color:#AEAEB6"/>
			</linearGradient>
			<path style="fill:url(#SVGID_00000005227188907924650620000004330505965342451844_);" d="M243.834,259.962l-1.346,6.818h14.58
				l-1.122,5.652h-14.625l-1.436,7.268h17.137l-1.211,5.832h-24.315l6.281-31.402h23.731l-1.211,5.832H243.834z"/>
			
				<linearGradient id="SVGID_00000081644485371063913420000012488476643268482964_" gradientUnits="userSpaceOnUse" x1="288.8384" y1="243.0731" x2="326.4073" y2="308.1443">
				<stop  offset="0" style="stop-color:#AEAEB6"/>
				<stop  offset="0.0824" style="stop-color:#C8C8D2"/>
				<stop  offset="0.1874" style="stop-color:#E4E4EF"/>
				<stop  offset="0.2472" style="stop-color:#EEEEFA"/>
				<stop  offset="0.2787" style="stop-color:#E6E6F2"/>
				<stop  offset="0.5196" style="stop-color:#AEAEB6"/>
				<stop  offset="0.6694" style="stop-color:#CECED8"/>
				<stop  offset="0.8382" style="stop-color:#EEEEFA"/>
				<stop  offset="0.8453" style="stop-color:#EBEBF7"/>
				<stop  offset="0.9484" style="stop-color:#BFBFC8"/>
				<stop  offset="1" style="stop-color:#AEAEB6"/>
			</linearGradient>
			<path style="fill:url(#SVGID_00000081644485371063913420000012488476643268482964_);" d="M283.985,275.843l5.473,9.689h-7.671
				l-4.935-8.793h-6.191l-1.75,8.793h-7.313l6.281-31.402h12.785c7.806,0,12.292,3.589,12.292,9.734
				C292.957,269.786,289.592,274.093,283.985,275.843z M285.6,264.537c0-3.05-2.153-4.485-5.877-4.485h-5.742l-2.198,10.9h6.191
				C282.773,270.952,285.6,268.709,285.6,264.537z"/>
			
				<linearGradient id="SVGID_00000090998611493463686620000004938391677157709190_" gradientUnits="userSpaceOnUse" x1="288.8384" y1="243.0731" x2="326.4073" y2="308.1443">
				<stop  offset="0" style="stop-color:#AEAEB6"/>
				<stop  offset="0.0824" style="stop-color:#C8C8D2"/>
				<stop  offset="0.1874" style="stop-color:#E4E4EF"/>
				<stop  offset="0.2472" style="stop-color:#EEEEFA"/>
				<stop  offset="0.2787" style="stop-color:#E6E6F2"/>
				<stop  offset="0.5196" style="stop-color:#AEAEB6"/>
				<stop  offset="0.6694" style="stop-color:#CECED8"/>
				<stop  offset="0.8382" style="stop-color:#EEEEFA"/>
				<stop  offset="0.8453" style="stop-color:#EBEBF7"/>
				<stop  offset="0.9484" style="stop-color:#BFBFC8"/>
				<stop  offset="1" style="stop-color:#AEAEB6"/>
			</linearGradient>
			<path style="fill:url(#SVGID_00000090998611493463686620000004938391677157709190_);" d="M331.044,254.13l-19.874,31.402h-7.133
				l-7.313-31.402h7.492l5.069,22.386l14.221-22.386H331.044z"/>
			
				<linearGradient id="SVGID_00000118382044484528214240000003064297383994674097_" gradientUnits="userSpaceOnUse" x1="288.8384" y1="243.0731" x2="326.4073" y2="308.1443">
				<stop  offset="0" style="stop-color:#AEAEB6"/>
				<stop  offset="0.0824" style="stop-color:#C8C8D2"/>
				<stop  offset="0.1874" style="stop-color:#E4E4EF"/>
				<stop  offset="0.2472" style="stop-color:#EEEEFA"/>
				<stop  offset="0.2787" style="stop-color:#E6E6F2"/>
				<stop  offset="0.5196" style="stop-color:#AEAEB6"/>
				<stop  offset="0.6694" style="stop-color:#CECED8"/>
				<stop  offset="0.8382" style="stop-color:#EEEEFA"/>
				<stop  offset="0.8453" style="stop-color:#EBEBF7"/>
				<stop  offset="0.9484" style="stop-color:#BFBFC8"/>
				<stop  offset="1" style="stop-color:#AEAEB6"/>
			</linearGradient>
			<path style="fill:url(#SVGID_00000118382044484528214240000003064297383994674097_);" d="M334.319,254.13h7.312l-6.28,31.402
				h-7.313L334.319,254.13z"/>
			
				<linearGradient id="SVGID_00000026147511932071215710000012722999477561286837_" gradientUnits="userSpaceOnUse" x1="288.8384" y1="243.0731" x2="326.4073" y2="308.1443">
				<stop  offset="0" style="stop-color:#AEAEB6"/>
				<stop  offset="0.0824" style="stop-color:#C8C8D2"/>
				<stop  offset="0.1874" style="stop-color:#E4E4EF"/>
				<stop  offset="0.2472" style="stop-color:#EEEEFA"/>
				<stop  offset="0.2787" style="stop-color:#E6E6F2"/>
				<stop  offset="0.5196" style="stop-color:#AEAEB6"/>
				<stop  offset="0.6694" style="stop-color:#CECED8"/>
				<stop  offset="0.8382" style="stop-color:#EEEEFA"/>
				<stop  offset="0.8453" style="stop-color:#EBEBF7"/>
				<stop  offset="0.9484" style="stop-color:#BFBFC8"/>
				<stop  offset="1" style="stop-color:#AEAEB6"/>
			</linearGradient>
			<path style="fill:url(#SVGID_00000026147511932071215710000012722999477561286837_);" d="M343.74,272.433
				c0-10.722,7.851-18.842,19.514-18.842c5.563,0,10.094,1.975,12.337,5.563l-5.249,4.307c-1.615-2.378-4.127-3.679-7.581-3.679
				c-7.088,0-11.664,5.428-11.664,12.202c0,4.755,3.14,7.896,8.793,7.896c3.185,0,6.011-1.122,8.344-3.634l4.307,4.396
				c-3.319,3.857-7.896,5.428-13.279,5.428C349.662,286.07,343.74,280.508,343.74,272.433z"/>
			
				<linearGradient id="SVGID_00000041996875403480061150000017541300885383743396_" gradientUnits="userSpaceOnUse" x1="288.8384" y1="243.0731" x2="326.4073" y2="308.1443">
				<stop  offset="0" style="stop-color:#AEAEB6"/>
				<stop  offset="0.0824" style="stop-color:#C8C8D2"/>
				<stop  offset="0.1874" style="stop-color:#E4E4EF"/>
				<stop  offset="0.2472" style="stop-color:#EEEEFA"/>
				<stop  offset="0.2787" style="stop-color:#E6E6F2"/>
				<stop  offset="0.5196" style="stop-color:#AEAEB6"/>
				<stop  offset="0.6694" style="stop-color:#CECED8"/>
				<stop  offset="0.8382" style="stop-color:#EEEEFA"/>
				<stop  offset="0.8453" style="stop-color:#EBEBF7"/>
				<stop  offset="0.9484" style="stop-color:#BFBFC8"/>
				<stop  offset="1" style="stop-color:#AEAEB6"/>
			</linearGradient>
			<path style="fill:url(#SVGID_00000041996875403480061150000017541300885383743396_);" d="M387.973,259.962l-1.346,6.818h14.58
				l-1.122,5.652h-14.625l-1.436,7.268h17.137l-1.211,5.832h-24.315l6.281-31.402h23.731l-1.211,5.832H387.973z"/>
		</g>
		<g>
			<path style="fill:#EEEEFA;" d="M219.833,254.091c3.994,0,7.596,0.843,10.207,2.38l-2.287,4.65
				c-2.314-1.421-5.245-2.198-8.323-2.198c-4.364,0-7.184,1.711-7.184,4.354c-0.022,2.564,3.068,3.429,6.339,4.345
				c4.325,1.211,9.227,2.583,9.227,7.772c0,6.182-5.491,10.177-13.99,10.177c-4.515,0-9.145-1.228-11.96-3.152l2.491-4.718
				c2.857,1.936,6.535,3.038,10.186,3.038c4.321,0,7.005-1.601,7.005-4.179c0-2.462-2.862-3.27-6.176-4.206
				c-4.402-1.244-9.391-2.653-9.391-8.13C205.978,258.068,211.417,254.091,219.833,254.091 M219.833,253.591
				c-8.703,0-14.355,4.173-14.355,10.633c0,10.004,15.567,7.313,15.567,12.336c0,2.288-2.512,3.679-6.505,3.679
				c-3.724,0-7.492-1.166-10.363-3.274l-2.961,5.607c2.647,1.974,7.492,3.499,12.606,3.499c8.748,0,14.49-4.172,14.49-10.677
				c0-9.645-15.611-6.953-15.566-12.112c0-2.243,2.467-3.858,6.684-3.858c3.096,0,6.146,0.808,8.524,2.423l2.736-5.563
				C227.954,254.533,224.05,253.591,219.833,253.591L219.833,253.591z"/>
			<path style="fill:#EEEEFA;" d="M260.895,254.63l-1.004,4.832h-16.057h-0.411l-0.08,0.403l-1.346,6.818l-0.118,0.597h0.608h13.971
				l-0.923,4.652h-14.214h-0.411l-0.08,0.403l-1.436,7.268l-0.118,0.597h0.608h16.522l-1.003,4.832h-23.298l6.081-30.402H260.895
				 M261.509,254.13h-23.731l-6.281,31.402h24.315l1.211-5.832h-17.137l1.436-7.268h14.625l1.122-5.652h-14.58l1.346-6.818h16.464
				L261.509,254.13L261.509,254.13z"/>
			<path style="fill:#EEEEFA;" d="M280.665,254.63c7.494,0,11.792,3.366,11.792,9.234c0,5.599-3.142,9.791-8.621,11.501
				l-0.591,0.184l0.304,0.539l5.052,8.943h-6.522l-4.791-8.538l-0.143-0.255h-0.293h-6.191h-0.41l-0.08,0.402l-1.669,8.391h-6.292
				l6.081-30.402H280.665 M271.172,271.452h0.611h6.191c5.164,0,8.126-2.52,8.126-6.915c0-3.215-2.265-4.985-6.377-4.985h-5.742
				h-0.409l-0.081,0.401l-2.198,10.9L271.172,271.452 M280.665,254.13H267.88l-6.281,31.402h7.313l1.75-8.793h6.191l4.935,8.793
				h7.671l-5.473-9.689c5.607-1.75,8.972-6.057,8.972-11.979C292.957,257.719,288.471,254.13,280.665,254.13L280.665,254.13z
				 M271.783,270.952l2.198-10.9h5.742c3.724,0,5.877,1.436,5.877,4.485c0,4.172-2.827,6.415-7.626,6.415H271.783L271.783,270.952z"
				/>
			<path style="fill:#EEEEFA;" d="M330.136,254.63l-19.241,30.402h-6.461l-7.08-30.402h6.462l4.981,21.996l0.265,1.172l0.644-1.014
				l14.074-22.154H330.136 M331.044,254.13h-7.537l-14.221,22.386l-5.069-22.386h-7.492l7.313,31.402h7.133L331.044,254.13
				L331.044,254.13z"/>
			<path style="fill:#EEEEFA;" d="M341.021,254.63l-6.08,30.402h-6.293l6.081-30.402H341.021 M341.631,254.13h-7.312l-6.281,31.402
				h7.313L341.631,254.13L341.631,254.13z"/>
			<path style="fill:#EEEEFA;" d="M363.254,254.091c5.255,0,9.477,1.803,11.672,4.963l-4.49,3.684
				c-1.756-2.293-4.335-3.455-7.675-3.455c-7.048,0-12.164,5.342-12.164,12.702c0,5.179,3.561,8.396,9.293,8.396
				c3.266,0,6.071-1.149,8.346-3.417l3.621,3.696c-3.017,3.303-7.143,4.911-12.596,4.911c-9.125,0-15.021-5.157-15.021-13.138
				C344.24,261.633,352.059,254.091,363.254,254.091 M363.254,253.591c-11.664,0-19.514,8.12-19.514,18.842
				c0,8.075,5.921,13.638,15.521,13.638c5.383,0,9.959-1.57,13.279-5.428l-4.307-4.396c-2.333,2.512-5.159,3.634-8.344,3.634
				c-5.653,0-8.793-3.141-8.793-7.896c0-6.774,4.576-12.202,11.664-12.202c3.454,0,5.966,1.301,7.581,3.679l5.249-4.307
				C373.348,255.565,368.817,253.591,363.254,253.591L363.254,253.591z"/>
			<path style="fill:#EEEEFA;" d="M405.034,254.63l-1.004,4.832h-16.057h-0.411l-0.08,0.403l-1.346,6.818l-0.118,0.597h0.608h13.971
				l-0.923,4.652h-14.214h-0.411l-0.08,0.403l-1.436,7.268l-0.118,0.597h0.608h16.522l-1.003,4.832h-23.298l6.081-30.402H405.034
				 M405.648,254.13h-23.731l-6.281,31.402h24.315l1.211-5.832h-17.137l1.436-7.268h14.625l1.122-5.652h-14.58l1.346-6.818h16.464
				L405.648,254.13L405.648,254.13z"/>
		</g>
	</g>
	<g>
		<g>
			
				<linearGradient id="SVGID_00000089538888060548865960000012819922072189494191_" gradientUnits="userSpaceOnUse" x1="139.1942" y1="255.2662" x2="161.004" y2="293.0417">
				<stop  offset="0.0024" style="stop-color:#E5591F"/>
				<stop  offset="0.0927" style="stop-color:#EB7120"/>
				<stop  offset="0.2261" style="stop-color:#F28E21"/>
				<stop  offset="0.3022" style="stop-color:#F59921"/>
				<stop  offset="0.4722" style="stop-color:#EA821E"/>
				<stop  offset="1" style="stop-color:#C93D17"/>
			</linearGradient>
			<path style="fill:url(#SVGID_00000089538888060548865960000012819922072189494191_);" d="M96.302,272.028
				c0-11.035,8.209-18.796,19.829-18.796c6.011,0,10.946,2.242,13.234,6.28l-7.626,5.966c-1.346-2.332-3.41-3.678-6.281-3.678
				c-4.979,0-8.479,3.947-8.479,9.555c0,3.679,2.557,6.146,6.46,6.146c2.467,0,4.845-1.032,6.999-3.634l6.235,5.966
				c-3.813,4.666-8.479,6.236-14.266,6.236C102.672,286.07,96.302,280.373,96.302,272.028z"/>
			
				<linearGradient id="SVGID_00000114795690478316994240000010388096685816888983_" gradientUnits="userSpaceOnUse" x1="139.1942" y1="255.2662" x2="161.004" y2="293.0417">
				<stop  offset="0.0024" style="stop-color:#E5591F"/>
				<stop  offset="0.0927" style="stop-color:#EB7120"/>
				<stop  offset="0.2261" style="stop-color:#F28E21"/>
				<stop  offset="0.3022" style="stop-color:#F59921"/>
				<stop  offset="0.4722" style="stop-color:#EA821E"/>
				<stop  offset="1" style="stop-color:#C93D17"/>
			</linearGradient>
			<path style="fill:url(#SVGID_00000114795690478316994240000010388096685816888983_);" d="M150.809,279.879h-11.978l-3.14,5.474
				h-11.17l20.008-31.402h10.408l7.447,31.402H151.84L150.809,279.879z M149.328,272.253l-1.525-8.03l-4.621,8.03H149.328z"/>
			
				<linearGradient id="SVGID_00000085240787637059607840000007032647377963169963_" gradientUnits="userSpaceOnUse" x1="139.1942" y1="255.2662" x2="161.004" y2="293.0417">
				<stop  offset="0.0024" style="stop-color:#E5591F"/>
				<stop  offset="0.0927" style="stop-color:#EB7120"/>
				<stop  offset="0.2261" style="stop-color:#F28E21"/>
				<stop  offset="0.3022" style="stop-color:#F59921"/>
				<stop  offset="0.4722" style="stop-color:#EA821E"/>
				<stop  offset="1" style="stop-color:#C93D17"/>
			</linearGradient>
			<path style="fill:url(#SVGID_00000085240787637059607840000007032647377963169963_);" d="M189.031,276.201l5.249,9.151h-10.991
				l-4.441-7.896h-2.602l-1.57,7.896h-10.587l6.28-31.402h14.086c8.299,0,13.055,3.813,13.055,10.317
				C197.51,269.875,194.369,274.182,189.031,276.201z M182.84,262.114h-3.544l-1.48,7.357h4.351c2.916,0,4.621-1.525,4.621-4.172
				C186.788,263.057,185.263,262.114,182.84,262.114z"/>
		</g>
		<g>
			<path style="fill:#C93D17;" d="M116.131,253.732c5.769,0,10.323,2.056,12.579,5.658l-6.839,5.35
				c-1.498-2.283-3.653-3.439-6.413-3.439c-5.286,0-8.979,4.135-8.979,10.055c0,3.975,2.797,6.646,6.96,6.646
				c2.65,0,5.014-1.146,7.034-3.408l5.516,5.278c-3.371,3.937-7.582,5.698-13.582,5.698c-9.334,0-15.605-5.442-15.605-13.542
				C96.802,261.256,104.75,253.732,116.131,253.732 M116.131,253.232c-11.619,0-19.829,7.761-19.829,18.796
				c0,8.345,6.37,14.042,16.105,14.042c5.787,0,10.453-1.57,14.266-6.236l-6.235-5.966c-2.153,2.602-4.531,3.634-6.999,3.634
				c-3.903,0-6.46-2.468-6.46-6.146c0-5.607,3.499-9.555,8.479-9.555c2.871,0,4.935,1.346,6.281,3.678l7.626-5.966
				C127.077,255.475,122.142,253.232,116.131,253.232L116.131,253.232z"/>
			<path style="fill:#C93D17;" d="M154.541,254.45l7.21,30.402h-9.495l-0.955-5.066l-0.077-0.407h-0.415h-11.978h-0.29l-0.144,0.251
				l-2.996,5.222h-9.969l19.371-30.402H154.541 M142.318,272.753h0.865h6.146h0.604l-0.113-0.593l-1.525-8.03l-0.252-1.325
				l-0.673,1.169l-4.621,8.03L142.318,272.753 M154.936,253.95h-10.408l-20.008,31.402h11.17l3.14-5.474h11.978l1.032,5.474h10.542
				L154.936,253.95L154.936,253.95z M143.182,272.253l4.621-8.03l1.525,8.03H143.182L143.182,272.253z"/>
			<path style="fill:#C93D17;" d="M184.455,254.45c7.979,0,12.555,3.578,12.555,9.817c0,5.326-2.973,9.505-8.156,11.466
				l-0.549,0.208l0.292,0.509l4.82,8.403h-9.836l-4.298-7.641l-0.143-0.255h-0.292h-2.602h-0.41l-0.08,0.402l-1.49,7.493h-9.567
				l6.08-30.402H184.455 M177.205,269.972h0.611h4.351c3.206,0,5.121-1.746,5.121-4.672c0-2.377-1.579-3.686-4.447-3.686h-3.544
				h-0.409l-0.081,0.401l-1.48,7.357L177.205,269.972 M184.455,253.95h-14.086l-6.28,31.402h10.587l1.57-7.896h2.602l4.441,7.896
				h10.991l-5.249-9.151c5.338-2.02,8.479-6.326,8.479-11.934C197.51,257.763,192.754,253.95,184.455,253.95L184.455,253.95z
				 M177.816,269.472l1.48-7.357h3.544c2.422,0,3.947,0.942,3.947,3.186c0,2.646-1.705,4.172-4.621,4.172H177.816L177.816,269.472z"
				/>
		</g>
	</g>
	
		<text transform="matrix(1 0 0 1 164.1617 313.0859)" style="fill:#FC7808; font-family:'Montserrat-Italic'; font-size:20.2096px;">your tagline here</text>
</g>
</svg>
